<svg preserveAspectRatio="none" width="100%" height="100%" overflow="visible" style="display: block;" viewBox="0 0 46.4102 77.3609" fill="none" xmlns="http://www.w3.org/2000/svg">
<path id="Vector 10" d="M0 5.33333C0 8.27885 2.38781 10.6667 5.33333 10.6667C8.27885 10.6667 10.6667 8.27885 10.6667 5.33333C10.6667 2.38781 8.27885 0 5.33333 0C2.38781 0 0 2.38781 0 5.33333ZM10.589 37.8231L9.60185 37.9828L9.64897 38.2741L9.84666 38.4931L10.589 37.8231ZM5.33333 5.33333L4.34617 5.49302L4.51041 6.50833L5.49757 6.34864L6.48474 6.18895L6.3205 5.17365L5.33333 5.33333ZM5.82605 8.37925L4.83889 8.53894L5.16737 10.5696L6.15453 10.4099L7.1417 10.2502L6.81322 8.21957L5.82605 8.37925ZM6.48301 12.4405L5.49585 12.6002L5.82433 14.6308L6.8115 14.4711L7.79866 14.3114L7.47018 12.2808L6.48301 12.4405ZM7.13998 16.5017L6.15281 16.6614L6.48129 18.692L7.46846 18.5323L8.45562 18.3726L8.12714 16.342L7.13998 16.5017ZM7.79694 20.5629L6.80977 20.7226L7.13825 22.7532L8.12542 22.5935L9.11258 22.4339L8.7841 20.4032L7.79694 20.5629ZM8.4539 24.6242L7.46673 24.7838L7.79521 26.8145L8.78238 26.6548L9.76955 26.4951L9.44106 24.4645L8.4539 24.6242ZM9.11086 28.6854L8.12369 28.8451L8.45217 30.8757L9.43934 30.716L10.4265 30.5563L10.098 28.5257L9.11086 28.6854ZM9.76782 32.7466L8.78065 32.9063L9.10913 34.9369L10.0963 34.7772L11.0835 34.6175L10.755 32.5869L9.76782 32.7466ZM10.4248 36.8078L9.43761 36.9675L9.60185 37.9828L10.589 37.8231L11.5762 37.6635L11.4119 36.6482L10.4248 36.8078ZM10.589 37.8231L9.84666 38.4931L10.5212 39.2406L11.2636 38.5706L12.006 37.9006L11.3314 37.1532L10.589 37.8231ZM12.6128 40.0655L11.8704 40.7355L13.2196 42.2304L13.962 41.5604L14.7043 40.8904L13.3552 39.3955L12.6128 40.0655ZM15.3112 43.0553L14.5688 43.7253L15.918 45.2203L16.6603 44.5503L17.4027 43.8803L16.0535 42.3853L15.3112 43.0553ZM18.0095 46.0452L17.2672 46.7152L18.6164 48.2101L19.3587 47.5401L20.1011 46.8701L18.7519 45.3752L18.0095 46.0452ZM20.7079 49.035L19.9655 49.705L21.3147 51.1999L22.0571 50.5299L22.7994 49.8599L21.4503 48.365L20.7079 49.035ZM23.4063 52.0248L22.6639 52.6948L24.0131 54.1897L24.7555 53.5197L25.4978 52.8497L24.1486 51.3548L23.4063 52.0248ZM26.1046 55.0146L25.3623 55.6846L26.7115 57.1796L27.4538 56.5096L28.1962 55.8396L26.847 54.3446L26.1046 55.0146ZM28.803 58.0045L28.0606 58.6745L29.4098 60.1694L30.1522 59.4994L30.8946 58.8294L29.5454 57.3345L28.803 58.0045ZM31.5014 60.9943L30.759 61.6643L32.1082 63.1592L32.8506 62.4892L33.5929 61.8192L32.2437 60.3243L31.5014 60.9943ZM34.1997 63.9841L33.4574 64.6541L34.8066 66.149L35.5489 65.479L36.2913 64.809L34.9421 63.3141L34.1997 63.9841ZM36.8981 66.9739L36.1557 67.6439L37.5049 69.1388L38.2473 68.4689L38.9897 67.7989L37.6405 66.3039L36.8981 66.9739ZM39.5965 69.9638L38.8541 70.6338L40.2033 72.1287L40.9457 71.4587L41.688 70.7887L40.3388 69.2938L39.5965 69.9638ZM42.2948 72.9536L41.5525 73.6236L42.9017 75.1185L43.644 74.4485L44.3864 73.7785L43.0372 72.2836L42.2948 72.9536ZM44.9932 75.9434L44.2508 76.6134L44.9254 77.3609L45.6678 76.6909L46.4102 76.0209L45.7356 75.2734L44.9932 75.9434Z" fill="var(--stroke-0, #B07D22)"/>
</svg>
