<svg preserveAspectRatio="none" width="100%" height="100%" overflow="visible" style="display: block;" viewBox="0 0 71.1155 74.7344" fill="none" xmlns="http://www.w3.org/2000/svg">
<path id="Vector 11" d="M0 9.70607C0 12.6516 2.38781 15.0394 5.33333 15.0394C8.27885 15.0394 10.6667 12.6516 10.6667 9.70607C10.6667 6.76055 8.27885 4.37274 5.33333 4.37274C2.38781 4.37274 0 6.76055 0 9.70607ZM58.2503 1.14684L59.2375 0.987152L59.0778 0L58.0906 0.159671L58.2503 1.14684ZM5.33333 9.70607L5.49301 10.6932L6.51064 10.5286L6.35097 9.54147L6.19129 8.5543L5.17366 8.7189L5.33333 9.70607ZM8.38623 9.21227L8.54591 10.1994L10.5812 9.87024L10.4215 8.88307L10.2618 7.8959L8.22656 8.2251L8.38623 9.21227ZM12.4568 8.55387L12.6164 9.54104L14.6517 9.21184L14.492 8.22467L14.3324 7.2375L12.2971 7.5667L12.4568 8.55387ZM16.5273 7.89546L16.687 8.88263L18.7222 8.55343L18.5626 7.56626L18.4029 6.57909L16.3676 6.90829L16.5273 7.89546ZM20.5978 7.23706L20.7575 8.22423L22.7928 7.89503L22.6331 6.90786L22.4734 5.92069L20.4382 6.24989L20.5978 7.23706ZM24.6684 6.57866L24.828 7.56583L26.8633 7.23663L26.7036 6.24946L26.544 5.26229L24.5087 5.59149L24.6684 6.57866ZM28.7389 5.92026L28.8986 6.90743L30.9339 6.57823L30.7742 5.59106L30.6145 4.60389L28.5792 4.93309L28.7389 5.92026ZM32.8094 5.26185L32.9691 6.24902L35.0044 5.91982L34.8447 4.93265L34.685 3.94548L32.6498 4.27468L32.8094 5.26185ZM36.88 4.60345L37.0397 5.59062L39.0749 5.26142L38.9153 4.27425L38.7556 3.28708L36.7203 3.61628L36.88 4.60345ZM40.9505 3.94505L41.1102 4.93222L43.1455 4.60302L42.9858 3.61585L42.8261 2.62868L40.7908 2.95788L40.9505 3.94505ZM45.0211 3.28665L45.1807 4.27382L47.216 3.94462L47.0563 2.95745L46.8966 1.97028L44.8614 2.29948L45.0211 3.28665ZM49.0916 2.62825L49.2513 3.61542L51.2865 3.28622L51.1268 2.29905L50.9672 1.31188L48.9319 1.64108L49.0916 2.62825ZM53.1621 1.96984L53.3218 2.95701L55.3571 2.62781L55.1974 1.64064L55.0377 0.653473L53.0024 0.982674L53.1621 1.96984ZM57.2326 1.31144L57.3923 2.29861L58.41 2.13401L58.2503 1.14684L58.0906 0.159671L57.073 0.324272L57.2326 1.31144ZM58.2503 1.14684L57.2631 1.30653L57.4194 2.27269L58.4066 2.113L59.3937 1.95331L59.2375 0.987152L58.2503 1.14684ZM58.7192 4.04531L57.732 4.205L58.0446 6.13731L59.0317 5.97762L60.0189 5.81794L59.7063 3.88562L58.7192 4.04531ZM59.3443 7.90994L58.3571 8.06963L58.6697 10.0019L59.6569 9.84225L60.6441 9.68256L60.3315 7.75025L59.3443 7.90994ZM59.9695 11.7746L58.9823 11.9343L59.2949 13.8666L60.2821 13.7069L61.2692 13.5472L60.9566 11.6149L59.9695 11.7746ZM60.5946 15.6392L59.6075 15.7989L59.92 17.7312L60.9072 17.5715L61.8944 17.4118L61.5818 15.4795L60.5946 15.6392ZM61.2198 19.5038L60.2326 19.6635L60.5452 21.5958L61.5324 21.4361L62.5195 21.2764L62.207 19.3441L61.2198 19.5038ZM61.845 23.3684L60.8578 23.5281L61.1704 25.4604L62.1575 25.3008L63.1447 25.1411L62.8321 23.2088L61.845 23.3684ZM62.4701 27.2331L61.4829 27.3928L61.7955 29.3251L62.7827 29.1654L63.7699 29.0057L63.4573 27.0734L62.4701 27.2331ZM63.0953 31.0977L62.1081 31.2574L62.4207 33.1897L63.4079 33.03L64.395 32.8703L64.0824 30.938L63.0953 31.0977ZM63.7204 34.9623L62.7333 35.122L63.0459 37.0543L64.033 36.8946L65.0202 36.7349L64.7076 34.8026L63.7204 34.9623ZM64.3456 38.8269L63.3584 38.9866L63.671 40.9189L64.6582 40.7593L65.6453 40.5996L65.3328 38.6673L64.3456 38.8269ZM64.9708 42.6916L63.9836 42.8513L64.2962 44.7836L65.2833 44.6239L66.2705 44.4642L65.9579 42.5319L64.9708 42.6916ZM65.5959 46.5562L64.6088 46.7159L64.9213 48.6482L65.9085 48.4885L66.8957 48.3288L66.5831 46.3965L65.5959 46.5562ZM66.2211 50.4208L65.2339 50.5805L65.5465 52.5128L66.5337 52.3531L67.5208 52.1934L67.2082 50.2611L66.2211 50.4208ZM66.8462 54.2854L65.8591 54.4451L66.1717 56.3775L67.1588 56.2178L68.146 56.0581L67.8334 54.1258L66.8462 54.2854ZM67.4714 58.1501L66.4842 58.3098L66.7968 60.2421L67.784 60.0824L68.7711 59.9227L68.4586 57.9904L67.4714 58.1501ZM68.0966 62.0147L67.1094 62.1744L67.422 64.1067L68.4091 63.947L69.3963 63.7873L69.0837 61.855L68.0966 62.0147ZM68.7217 65.8793L67.7346 66.039L68.0471 67.9713L69.0343 67.8116L70.0215 67.652L69.7089 65.7196L68.7217 65.8793ZM69.3469 69.744L68.3597 69.9037L68.6723 71.836L69.6595 71.6763L70.6466 71.5166L70.3341 69.5843L69.3469 69.744ZM69.972 73.6086L68.9849 73.7683L69.1412 74.7344L70.1283 74.5748L71.1155 74.4151L70.9592 73.4489L69.972 73.6086Z" fill="var(--stroke-0, #B07D22)"/>
</svg>
