<svg preserveAspectRatio="none" width="100%" height="100%" overflow="visible" style="display: block;" viewBox="0 0 88.4163 92.1701" fill="none" xmlns="http://www.w3.org/2000/svg">
<path id="Vector 13" d="M77.7496 5.33333C77.7496 8.27885 80.1375 10.6667 83.083 10.6667C86.0285 10.6667 88.4163 8.27885 88.4163 5.33333C88.4163 2.38781 86.0285 0 83.083 0C80.1375 0 77.7496 2.38781 77.7496 5.33333ZM1.14687 18.5825L0.987239 17.5953L0 17.7549L0.159699 18.7421L1.14687 18.5825ZM13.0249 92.0104L14.0121 91.8507L13.8558 90.8845L12.8686 91.0442L11.8815 91.2039L12.0377 92.1701L13.0249 92.0104ZM12.556 89.1119L13.5432 88.9522L13.2306 87.0199L12.2435 87.1796L11.2563 87.3393L11.5689 89.2716L12.556 89.1119ZM11.9309 85.2473L12.9181 85.0876L12.6055 83.1553L11.6183 83.315L10.6311 83.4746L10.9437 85.407L11.9309 85.2473ZM11.3057 81.3826L12.2929 81.223L11.9803 79.2906L10.9931 79.4503L10.006 79.61L10.3186 81.5423L11.3057 81.3826ZM10.6806 77.518L11.6677 77.3583L11.3552 75.426L10.368 75.5857L9.38082 75.7454L9.6934 77.6777L10.6806 77.518ZM10.0554 73.6534L11.0426 73.4937L10.73 71.5614L9.74282 71.7211L8.75566 71.8808L9.06824 73.8131L10.0554 73.6534ZM9.43024 69.7888L10.4174 69.6291L10.1048 67.6968L9.11766 67.8565L8.1305 68.0161L8.44308 69.9485L9.43024 69.7888ZM8.80508 65.9241L9.79225 65.7644L9.47967 63.8321L8.4925 63.9918L7.50533 64.1515L7.81791 66.0838L8.80508 65.9241ZM8.17992 62.0595L9.16709 61.8998L8.85451 59.9675L7.86734 60.1272L6.88017 60.2869L7.19275 62.2192L8.17992 62.0595ZM7.55476 58.1949L8.54193 58.0352L8.22935 56.1029L7.24218 56.2626L6.25501 56.4223L6.56759 58.3546L7.55476 58.1949ZM6.9296 54.3303L7.91677 54.1706L7.60419 52.2383L6.61702 52.3979L5.62985 52.5576L5.94243 54.4899L6.9296 54.3303ZM6.30444 50.4656L7.29161 50.3059L6.97903 48.3736L5.99186 48.5333L5.00469 48.693L5.31727 50.6253L6.30444 50.4656ZM5.67928 46.601L6.66645 46.4413L6.35387 44.509L5.3667 44.6687L4.37953 44.8284L4.69211 46.7607L5.67928 46.601ZM5.05412 42.7364L6.04129 42.5767L5.72871 40.6444L4.74154 40.8041L3.75437 40.9638L4.06695 42.8961L5.05412 42.7364ZM4.42896 38.8718L5.41613 38.7121L5.10355 36.7798L4.11638 36.9394L3.12921 37.0991L3.44179 39.0314L4.42896 38.8718ZM3.8038 35.0071L4.79097 34.8474L4.47839 32.9151L3.49122 33.0748L2.50405 33.2345L2.81663 35.1668L3.8038 35.0071ZM3.17864 31.1425L4.16581 30.9828L3.85323 29.0505L2.86606 29.2102L1.87889 29.3699L2.19147 31.3022L3.17864 31.1425ZM2.55348 27.2779L3.54065 27.1182L3.22807 25.1859L2.2409 25.3456L1.25373 25.5052L1.56631 27.4376L2.55348 27.2779ZM1.92832 23.4132L2.91548 23.2536L2.6029 21.3212L1.61574 21.4809L0.62857 21.6406L0.94115 23.5729L1.92832 23.4132ZM1.30316 19.5486L2.29032 19.3889L2.13403 18.4228L1.14687 18.5825L0.159699 18.7421L0.315988 19.7083L1.30316 19.5486ZM1.14687 18.5825L1.30649 19.5696L2.28192 19.4119L2.1223 18.4247L1.96267 17.4375L0.987239 17.5953L1.14687 18.5825ZM4.07316 18.1093L4.23278 19.0964L6.18364 18.781L6.02402 17.7938L5.86439 16.8066L3.91353 17.1221L4.07316 18.1093ZM7.97488 17.4784L8.1345 18.4655L10.0854 18.1501L9.92574 17.1629L9.76611 16.1757L7.81525 16.4912L7.97488 17.4784ZM11.8766 16.8474L12.0362 17.8346L13.9871 17.5192L13.8275 16.532L13.6678 15.5448L11.717 15.8603L11.8766 16.8474ZM15.7783 16.2165L15.9379 17.2037L17.8888 16.8883L17.7292 15.9011L17.5696 14.9139L15.6187 15.2294L15.7783 16.2165ZM19.68 15.5856L19.8397 16.5728L21.7905 16.2574L21.6309 15.2702L21.4713 14.283L19.5204 14.5985L19.68 15.5856ZM23.5818 14.9547L23.7414 15.9419L25.6922 15.6264L25.5326 14.6393L25.373 13.6521L23.4221 13.9675L23.5818 14.9547ZM27.4835 14.3238L27.6431 15.311L29.594 14.9955L29.4343 14.0084L29.2747 13.0212L27.3238 13.3366L27.4835 14.3238ZM31.3852 13.6929L31.5448 14.6801L33.4957 14.3646L33.3361 13.3774L33.1764 12.3903L31.2256 12.7057L31.3852 13.6929ZM35.2869 13.062L35.4465 14.0492L37.3974 13.7337L37.2378 12.7465L37.0781 11.7594L35.1273 12.0748L35.2869 13.062ZM39.1886 12.4311L39.3483 13.4183L41.2991 13.1028L41.1395 12.1156L40.9799 11.1284L39.029 11.4439L39.1886 12.4311ZM43.0904 11.8002L43.25 12.7873L45.2008 12.4719L45.0412 11.4847L44.8816 10.4975L42.9307 10.813L43.0904 11.8002ZM46.9921 11.1693L47.1517 12.1564L49.1026 11.841L48.9429 10.8538L48.7833 9.86662L46.8324 10.1821L46.9921 11.1693ZM50.8938 10.5383L51.0534 11.5255L53.0043 11.2101L52.8447 10.2229L52.685 9.23571L50.7342 9.55117L50.8938 10.5383ZM54.7955 9.90743L54.9551 10.8946L56.906 10.5792L56.7464 9.59198L56.5867 8.6048L54.6359 8.92026L54.7955 9.90743ZM58.6972 9.27652L58.8569 10.2637L60.8077 9.94825L60.6481 8.96107L60.4885 7.97389L58.5376 8.28935L58.6972 9.27652ZM62.599 8.64561L62.7586 9.63279L64.7094 9.31734L64.5498 8.33016L64.3902 7.34298L62.4393 7.65844L62.599 8.64561ZM66.5007 8.0147L66.6603 9.00188L68.6112 8.68643L68.4515 7.69925L68.2919 6.71207L66.341 7.02753L66.5007 8.0147ZM70.4024 7.3838L70.562 8.37097L72.5129 8.05552L72.3532 7.06834L72.1936 6.08116L70.2428 6.39662L70.4024 7.3838ZM74.3041 6.75289L74.4637 7.74006L76.4146 7.42461L76.255 6.43743L76.0953 5.45025L74.1445 5.76571L74.3041 6.75289ZM78.2058 6.12198L78.3654 7.10915L80.3163 6.7937L80.1567 5.80652L79.997 4.81934L78.0462 5.1348L78.2058 6.12198ZM82.1075 5.49107L82.2671 6.47824L83.2426 6.32051L83.083 5.33333L82.9234 4.34616L81.9479 4.50389L82.1075 5.49107Z" fill="var(--stroke-0, #B07D22)"/>
</svg>
