<svg preserveAspectRatio="none" width="100%" height="100%" overflow="visible" style="display: block;" viewBox="0 0 62.2189 160.05" fill="none" xmlns="http://www.w3.org/2000/svg">
<path id="Vector 14" d="M0 5.33333C0 8.27885 2.38781 10.6667 5.33333 10.6667C8.27885 10.6667 10.6667 8.27885 10.6667 5.33333C10.6667 2.38781 8.27885 0 5.33333 0C2.38781 0 0 2.38781 0 5.33333ZM42.8675 46.3661L43.8546 46.2064L43.8069 45.9116L43.6053 45.6912L42.8675 46.3661ZM5.33333 5.33333L4.59547 6.00828L5.26572 6.74101L6.00359 6.06606L6.74145 5.39111L6.0712 4.65838L5.33333 5.33333ZM7.34409 7.53152L6.60623 8.20647L7.94673 9.67192L8.6846 8.99697L9.42246 8.32202L8.08195 6.85657L7.34409 7.53152ZM10.0251 10.4624L9.28724 11.1374L10.6277 12.6028L11.3656 11.9279L12.1035 11.2529L10.763 9.78748L10.0251 10.4624ZM12.7061 13.3933L11.9682 14.0683L13.3088 15.5337L14.0466 14.8588L14.7845 14.1838L13.444 12.7184L12.7061 13.3933ZM15.3871 16.3243L14.6493 16.9992L15.9898 18.4647L16.7276 17.7897L17.4655 17.1148L16.125 15.6493L15.3871 16.3243ZM18.0681 19.2552L17.3303 19.9301L18.6708 21.3956L19.4086 20.7206L20.1465 20.0457L18.806 18.5802L18.0681 19.2552ZM20.7491 22.1861L20.0113 22.861L21.3518 24.3265L22.0896 23.6515L22.8275 22.9766L21.487 21.5111L20.7491 22.1861ZM23.4302 25.117L22.6923 25.7919L24.0328 27.2574L24.7707 26.5824L25.5085 25.9075L24.168 24.442L23.4302 25.117ZM26.1112 28.0479L25.3733 28.7229L26.7138 30.1883L27.4517 29.5134L28.1895 28.8384L26.849 27.373L26.1112 28.0479ZM28.7922 30.9788L28.0543 31.6538L29.3948 33.1192L30.1327 32.4443L30.8705 31.7693L29.53 30.3039L28.7922 30.9788ZM31.4732 33.9097L30.7353 34.5847L32.0758 36.0501L32.8137 35.3752L33.5515 34.7002L32.211 33.2348L31.4732 33.9097ZM34.1542 36.8406L33.4163 37.5156L34.7568 38.981L35.4947 38.3061L36.2326 37.6311L34.8921 36.1657L34.1542 36.8406ZM36.8352 39.7716L36.0973 40.4465L37.4378 41.912L38.1757 41.237L38.9136 40.5621L37.5731 39.0966L36.8352 39.7716ZM39.5162 42.7025L38.7783 43.3774L40.1188 44.8429L40.8567 44.1679L41.5946 43.493L40.2541 42.0275L39.5162 42.7025ZM42.1972 45.6334L41.4594 46.3083L42.1296 47.0411L42.8675 46.3661L43.6053 45.6912L42.9351 44.9584L42.1972 45.6334ZM42.8675 46.3661L41.8803 46.5258L42.0386 47.5045L43.0258 47.3448L44.013 47.1851L43.8546 46.2064L42.8675 46.3661ZM43.3424 49.3021L42.3552 49.4618L42.6719 51.4191L43.659 51.2594L44.6462 51.0997L44.3296 49.1424L43.3424 49.3021ZM43.9757 53.2167L42.9885 53.3764L43.3051 55.3337L44.2923 55.174L45.2794 55.0143L44.9628 53.057L43.9757 53.2167ZM44.6089 57.1313L43.6217 57.291L43.9384 59.2483L44.9255 59.0887L45.9127 58.929L45.5961 56.9716L44.6089 57.1313ZM45.2422 61.046L44.255 61.2057L44.5716 63.163L45.5588 63.0033L46.5459 62.8436L46.2293 60.8863L45.2422 61.046ZM45.8754 64.9606L44.8882 65.1203L45.2049 67.0776L46.192 66.9179L47.1792 66.7582L46.8626 64.8009L45.8754 64.9606ZM46.5087 68.8752L45.5215 69.0349L45.8381 70.9922L46.8253 70.8325L47.8124 70.6729L47.4958 68.7155L46.5087 68.8752ZM47.1419 72.7899L46.1547 72.9495L46.4714 74.9069L47.4585 74.7472L48.4457 74.5875L48.1291 72.6302L47.1419 72.7899ZM47.7752 76.7045L46.788 76.8642L47.1046 78.8215L48.0918 78.6618L49.0789 78.5021L48.7623 76.5448L47.7752 76.7045ZM48.4084 80.6191L47.4212 80.7788L47.7379 82.7361L48.725 82.5764L49.7122 82.4167L49.3956 80.4594L48.4084 80.6191ZM49.0416 84.5337L48.0545 84.6934L48.3711 86.6507L49.3583 86.4911L50.3454 86.3314L50.0288 84.3741L49.0416 84.5337ZM49.6749 88.4484L48.6877 88.6081L49.0044 90.5654L49.9915 90.4057L50.9787 90.246L50.6621 88.2887L49.6749 88.4484ZM50.3081 92.363L49.321 92.5227L49.6376 94.48L50.6248 94.3203L51.6119 94.1606L51.2953 92.2033L50.3081 92.363ZM50.9414 96.2776L49.9542 96.4373L50.2708 98.3946L51.258 98.2349L52.2452 98.0753L51.9286 96.1179L50.9414 96.2776ZM51.5746 100.192L50.5875 100.352L50.9041 102.309L51.8913 102.15L52.8784 101.99L52.5618 100.033L51.5746 100.192ZM52.2079 104.107L51.2207 104.267L51.5373 106.224L52.5245 106.064L53.5117 105.905L53.1951 103.947L52.2079 104.107ZM52.8411 108.022L51.854 108.181L52.1706 110.139L53.1578 109.979L54.1449 109.819L53.8283 107.862L52.8411 108.022ZM53.4744 111.936L52.4872 112.096L52.8038 114.053L53.791 113.893L54.7782 113.734L54.4616 111.776L53.4744 111.936ZM54.1076 115.851L53.1205 116.01L53.4371 117.968L54.4243 117.808L55.4114 117.648L55.0948 115.691L54.1076 115.851ZM54.7409 119.765L53.7537 119.925L54.0703 121.882L55.0575 121.723L56.0447 121.563L55.7281 119.606L54.7409 119.765ZM55.3741 123.68L54.387 123.84L54.7036 125.797L55.6908 125.637L56.6779 125.478L56.3613 123.52L55.3741 123.68ZM56.0074 127.595L55.0202 127.754L55.3368 129.712L56.324 129.552L57.3112 129.392L56.9945 127.435L56.0074 127.595ZM56.6406 131.509L55.6535 131.669L55.9701 133.626L56.9573 133.467L57.9444 133.307L57.6278 131.35L56.6406 131.509ZM57.2739 135.424L56.2867 135.584L56.6033 137.541L57.5905 137.381L58.5777 137.222L58.261 135.264L57.2739 135.424ZM57.9071 139.339L56.92 139.498L57.2366 141.456L58.2238 141.296L59.2109 141.136L58.8943 139.179L57.9071 139.339ZM58.5404 143.253L57.5532 143.413L57.8698 145.37L58.857 145.21L59.8442 145.051L59.5275 143.093L58.5404 143.253ZM59.1736 147.168L58.1865 147.327L58.5031 149.285L59.4902 149.125L60.4774 148.965L60.1608 147.008L59.1736 147.168ZM59.8069 151.082L58.8197 151.242L59.1363 153.199L60.1235 153.04L61.1107 152.88L60.794 150.923L59.8069 151.082ZM60.4401 154.997L59.453 155.157L59.7696 157.114L60.7567 156.954L61.7439 156.795L61.4273 154.837L60.4401 154.997ZM61.0734 158.912L60.0862 159.071L60.2445 160.05L61.2317 159.89L62.2189 159.731L62.0605 158.752L61.0734 158.912Z" fill="var(--stroke-0, #B07D22)"/>
</svg>
