<svg preserveAspectRatio="none" width="100%" height="100%" overflow="visible" style="display: block;" viewBox="0 0 29 25" fill="none" xmlns="http://www.w3.org/2000/svg">
<path id="Layer 1 1 (Traced)" fill-rule="evenodd" clip-rule="evenodd" d="M12.8254 0.0134548C9.90511 0.376 7.23264 1.57213 5.04704 3.49485C2.31166 5.90127 0.602763 9.10823 0.124168 12.733C-0.183982 15.0672 0.0832596 17.4876 0.905414 19.8094C1.17381 20.5673 1.85894 21.9422 2.33915 22.6867C2.72938 23.2916 3.32426 24.0752 3.83083 24.6515L4.06261 24.9151L4.10001 24.4651C4.17324 23.5843 4.3761 22.8752 4.73396 22.2492C4.93751 21.8931 5.61221 21.2219 5.98987 20.9997C6.2689 20.8354 6.30588 20.7939 6.31976 20.6296C6.33626 20.4335 6.33129 20.4253 5.72577 19.6497C5.36839 19.1918 5.00744 18.4599 4.85946 17.8928C4.72061 17.3606 4.6677 16.2419 4.75339 15.6481C4.83526 15.0804 5.03232 14.2904 5.20339 13.8438C5.45528 13.1864 6.00056 12.1034 6.35313 11.5604L6.697 11.0307V9.89672C6.697 9.273 6.71235 8.76266 6.7311 8.76266C6.74985 8.76266 8.15819 9.23168 9.8608 9.80489C11.5634 10.3781 13.1096 10.8808 13.2969 10.922C13.741 11.0195 14.7535 11.0187 15.1563 10.9204C15.3292 10.8781 16.8436 10.3783 18.5218 9.80936L21.5729 8.77512V9.88586V10.9967L21.9084 11.4634C22.7488 12.6326 23.3534 13.9068 23.678 15.1931C23.8361 15.8191 23.8486 15.9316 23.8457 16.695C23.8432 17.3658 23.8214 17.5999 23.7297 17.9461C23.5667 18.5605 23.2076 19.2558 22.7534 19.836C22.3974 20.2908 22.3589 20.3625 22.3711 20.548C22.3841 20.7441 22.4035 20.765 22.7649 20.9739C23.9759 21.6737 24.6216 22.8258 24.7453 24.5076C24.7653 24.7784 24.793 25 24.8071 25C24.8211 25 24.9683 24.8503 25.1341 24.6673C28.2218 21.2597 29.543 16.7519 28.7957 12.1743C28.3309 9.3274 26.985 6.60416 25.0114 4.51732C22.8163 2.19639 20.1634 0.734393 17.0944 0.15432C16.415 0.0259123 16.2378 0.0147857 14.6849 0.00318002C13.763 -0.00368758 12.9263 0.000944057 12.8254 0.0134548ZM14.7589 3.44022C15.1199 3.48787 16.5884 3.9661 23.0393 6.1369C24.7667 6.7182 24.9503 6.82914 24.6519 7.11173C24.5771 7.18253 22.9023 7.77032 19.9508 8.76165C15.2788 10.3308 15.1308 10.377 14.5775 10.4388C13.904 10.5141 13.6276 10.4355 8.85322 8.81239C6.36261 7.96565 4.2516 7.22954 4.16213 7.17657C3.96225 7.05828 3.92501 6.87455 4.07424 6.74301C4.19906 6.63291 4.36725 6.57355 9.57747 4.79958C13.8152 3.3567 13.9191 3.32944 14.7589 3.44022ZM8.21602 12.7789C8.21602 12.8504 8.24189 12.9251 8.27353 12.945C8.30517 12.9649 8.39945 13.0907 8.48305 13.2247C8.71829 13.6018 8.69838 13.8911 8.41244 14.249C7.96465 14.8094 7.88974 14.9175 7.73198 15.231C7.49192 15.708 7.37689 16.1345 7.34436 16.6684C7.24406 18.3137 8.28872 19.6859 9.86525 19.9796C10.9208 20.1762 12.0594 19.8023 12.875 18.9912L13.1811 18.6869L13.2151 18.9819C13.2871 19.6055 13.7245 20.5091 14.2601 21.1403L14.4407 21.3533L14.6414 21.1187C15.1517 20.5225 15.5975 19.6852 15.6787 19.1705C15.7585 18.6654 15.7231 18.6746 16.1274 19.055C17.1957 20.0603 18.7048 20.3133 19.9491 19.6957C20.2398 19.5513 20.4457 19.3943 20.7411 19.0914C21.3617 18.4552 21.6253 17.7857 21.6253 16.846C21.6253 15.9727 21.3327 15.1914 20.7345 14.4673C20.5681 14.2659 20.4058 14.0515 20.3739 13.9908C20.2471 13.7501 20.3436 13.3892 20.6345 13.0159C20.9069 12.6664 20.8462 12.6272 20.0918 12.6651C18.8829 12.7257 17.7028 13.0129 16.7801 13.471C16.0333 13.8417 15.5997 14.2573 15.2872 14.9017C14.9043 15.6912 14.8336 16.4141 15.0529 17.2949C15.0883 17.4367 15.0843 17.4402 14.9493 17.388C14.7667 17.3175 14.1046 17.3181 13.9743 17.3889C13.8531 17.4549 13.8517 17.4358 13.9522 17.0991C14.0524 16.7634 14.0511 16.0201 13.9497 15.5825C13.5852 14.0111 12.1627 13.0818 9.57789 12.7266C9.2754 12.6851 8.8452 12.6506 8.62196 12.65C8.22623 12.649 8.21602 12.6522 8.21602 12.7789ZM10.4505 14.1372C9.81722 14.8497 9.79506 15.9111 10.3992 16.5928C11.3154 17.6264 12.9826 16.705 12.9826 15.1649C12.9826 14.8364 13.0344 14.8371 13.2009 15.1681C13.4418 15.647 13.5219 16.3561 13.3974 16.908C13.1551 17.9818 12.2276 18.879 11.1087 19.1218C10.7339 19.2031 10.6206 19.2072 10.2707 19.152C8.52333 18.8762 7.68929 17.0516 8.5634 15.4173C8.89423 14.7988 9.49686 14.276 10.1574 14.0346C10.6119 13.8685 10.671 13.8891 10.4505 14.1372ZM18.8675 14.0549C19.7285 14.3842 20.3561 15.0664 20.6598 16.0029C20.7878 16.3976 20.7871 17.1023 20.6584 17.4936C20.4798 18.0368 20.0537 18.5874 19.6041 18.8562C19.3583 19.0031 18.6596 19.1976 18.3824 19.1962C18.0566 19.1946 17.4735 19.0444 17.1323 18.8741C16.0426 18.3301 15.346 17.0312 15.5431 15.9105C15.6079 15.5422 15.7766 15.1133 15.9362 14.9116C16.0163 14.8104 16.019 14.8156 15.99 15.018C15.9504 15.2943 16.088 15.8925 16.2595 16.19C16.8197 17.1615 18.0606 17.3165 18.6766 16.4918C19.1591 15.8458 19.0958 14.7705 18.5372 14.1239C18.3311 13.8854 18.3915 13.8727 18.8675 14.0549Z" fill="var(--fill-0, #F4F2EC)"/>
</svg>
