<svg preserveAspectRatio="none" width="100%" height="100%" overflow="visible" style="display: block;" viewBox="0 0 1751.07 411.311" fill="none" xmlns="http://www.w3.org/2000/svg">
<g id="Group" opacity="0.27">
<path id="Vector" d="M1416.6 105.73V207.256H1425.12V234.685H1427.74V207.256H1436.27V105.73H1427.74V83.125H1425.12V105.73H1416.6Z" fill="var(--fill-0, #D29A45)" fill-opacity="0.08"/>
<path id="Vector_2" d="M1731.39 22.5986V164.409H1739.92V204.735H1742.55V164.409H1751.07V22.5986H1742.55V0H1739.92V22.5986H1731.39Z" fill="var(--fill-0, #D29A45)" fill-opacity="0.08"/>
<path id="Vector_3" d="M944.398 216.149V304.778H952.919V345.104H955.546V304.778H964.074V216.149H955.546V175.816H952.919V216.149H944.398Z" fill="var(--fill-0, #D29A45)" fill-opacity="0.08"/>
<path id="Vector_4" d="M1180.49 223.129V335.913H1189.02V393.966H1191.64V335.913H1200.17V223.129H1191.64V200.523H1189.02V223.129H1180.49Z" fill="var(--fill-0, #D29A45)" fill-opacity="0.08"/>
<path id="Vector_5" d="M472.199 120.517V215.615H480.72V255.947H483.347V215.615H491.875V120.517H483.347V81.8086H480.72V120.517H472.199Z" fill="var(--fill-0, #D29A45)" fill-opacity="0.08"/>
<path id="Vector_6" d="M708.295 259.031V347.66H716.823V387.986H719.443V347.66H727.971V259.031H719.443V236.426H716.823V259.031H708.295Z" fill="var(--fill-0, #D29A45)" fill-opacity="0.08"/>
<path id="Vector_7" d="M7.62939e-06 267.856V372.602H8.52126V411.311H11.1484V372.602H19.6764V267.856H11.1484V243.641H8.52126V267.856H7.62939e-06Z" fill="var(--fill-0, #D29A45)" fill-opacity="0.08"/>
<path id="Vector_8" d="M236.096 50.4098V174.493H244.624V197.092H247.244V174.493H255.772V50.4098H247.244V20.6758H244.624V50.4098H236.096Z" fill="var(--fill-0, #D29A45)" fill-opacity="0.08"/>
</g>
</svg>
