<svg preserveAspectRatio="none" width="100%" height="100%" overflow="visible" style="display: block;" viewBox="0 0 1908.46 587.538" fill="none" xmlns="http://www.w3.org/2000/svg">
<g id="Group" opacity="0.3">
<path id="Vector" d="M1416.6 334.525V407.051H1425.12V447.377H1427.74V407.051H1436.27V334.525H1427.74V295.816H1425.12V334.525H1416.6Z" fill="var(--fill-0, #D29A45)" fill-opacity="0.08"/>
<path id="Vector_2" d="M1652.69 127.155V199.681H1661.22V223.897H1663.84V199.681H1672.37V127.155H1663.84V54.6094H1661.22V127.155H1652.69Z" fill="var(--fill-0, #D29A45)" fill-opacity="0.08"/>
<path id="Vector_3" d="M944.398 458.548V547.177H952.919V587.503H955.546V547.177H964.067V458.548H955.546V435.949H952.919V458.548H944.398Z" fill="var(--fill-0, #D29A45)" fill-opacity="0.08"/>
<path id="Vector_4" d="M1180.49 229.795V318.424H1189.02V341.029H1191.64V318.424H1200.17V229.795H1191.64V189.469H1189.02V229.795H1180.49Z" fill="var(--fill-0, #D29A45)" fill-opacity="0.08"/>
<path id="Vector_5" d="M1888.8 58.0532V182.137H1897.32V222.463H1899.94V182.137H1908.46V58.0532H1899.94V0.000212739H1897.32V58.0532H1888.8Z" fill="var(--fill-0, #D29A45)" fill-opacity="0.08"/>
<path id="Vector_6" d="M472.199 220.703V342.159H480.72V364.758H483.347V342.159H491.868V220.703H483.347V144.93H480.72V220.703H472.199Z" fill="var(--fill-0, #D29A45)" fill-opacity="0.08"/>
<path id="Vector_7" d="M708.295 308.301V414.657H716.823V437.256H719.443V414.657H727.971V308.301H719.443V285.695H716.823V308.301H708.295Z" fill="var(--fill-0, #D29A45)" fill-opacity="0.08"/>
<path id="Vector_8" d="M9.53674e-07 476.31V564.939H8.52126V587.538H11.1484V564.939H19.6696V476.31H11.1484V435.984H8.52126V476.31H9.53674e-07Z" fill="var(--fill-0, #D29A45)" fill-opacity="0.08"/>
<path id="Vector_9" d="M236.096 179.576V303.659H244.624V326.258H247.244V303.659H255.772V179.576H247.244V139.25H244.624V179.576H236.096Z" fill="var(--fill-0, #D29A45)" fill-opacity="0.08"/>
</g>
</svg>
