<svg preserveAspectRatio="none" width="100%" height="100%" overflow="visible" style="display: block;" viewBox="0 0 1908.47 576.737" fill="none" xmlns="http://www.w3.org/2000/svg">
<g id="Group" opacity="0.1">
<path id="Vector" d="M1416.6 344.33V432.959H1425.12V455.564H1427.74V432.959H1436.27V344.33H1427.74V304.004H1425.12V344.33H1416.6Z" fill="var(--fill-0, #D29A45)" fill-opacity="0.08"/>
<path id="Vector_2" d="M1652.7 38.7156V112.852H1661.22V151.561H1663.85V112.852H1672.37V38.7156H1663.85V8.81458e-05H1661.22V38.7156H1652.7Z" fill="var(--fill-0, #D29A45)" fill-opacity="0.08"/>
<path id="Vector_3" d="M944.397 430.055V536.411H952.925V576.737H955.546V536.411H964.074V430.055H955.546V407.449H952.925V430.055H944.397Z" fill="var(--fill-0, #D29A45)" fill-opacity="0.08"/>
<path id="Vector_4" d="M1180.5 186.926V293.282H1189.02V315.881H1191.65V293.282H1200.17V186.926H1191.65V164.32H1189.02V186.926H1180.5Z" fill="var(--fill-0, #D29A45)" fill-opacity="0.08"/>
<path id="Vector_5" d="M1888.8 93.029V252.567H1897.32V310.62H1899.94V252.567H1908.47V93.029H1899.94V52.7031H1897.32V93.029H1888.8Z" fill="var(--fill-0, #D29A45)" fill-opacity="0.08"/>
<path id="Vector_6" d="M472.199 110.777V199.407H480.727V239.732H483.347V199.407H491.875V110.777H483.347V88.1719H480.727V110.777H472.199Z" fill="var(--fill-0, #D29A45)" fill-opacity="0.08"/>
<path id="Vector_7" d="M708.301 189.974V299.565H716.823V356.001H719.45V299.565H727.971V189.974H719.45V151.266H716.823V189.974H708.301Z" fill="var(--fill-0, #D29A45)" fill-opacity="0.08"/>
<path id="Vector_8" d="M236.096 183.173V323.367H244.624V345.965H247.251V323.367H255.772V183.173H247.251V160.574H244.624V183.173H236.096Z" fill="var(--fill-0, #D29A45)" fill-opacity="0.08"/>
<path id="Vector_9" d="M0 420.02V508.65H8.52799V548.976H11.1484V508.65H19.6764V420.02H11.1484V397.422H8.52799V420.02H0Z" fill="var(--fill-0, #D29A45)" fill-opacity="0.08"/>
</g>
</svg>
