<svg preserveAspectRatio="none" width="100%" height="100%" overflow="visible" style="display: block;" viewBox="0 0 1593.67 641.415" fill="none" xmlns="http://www.w3.org/2000/svg">
<g id="Group" opacity="0.25">
<path id="Vector" d="M1180.49 339.81V420.388H1189.02V460.714H1191.65V420.388H1200.17V339.81H1191.65V286.602H1189.02V339.81H1180.49Z" fill="var(--fill-0, #D29A45)" fill-opacity="0.08"/>
<path id="Vector_2" d="M1416.6 40.3258V132.196H1425.12V190.249H1427.74V132.196H1436.27V40.3258H1427.74V0H1425.12V40.3258H1416.6Z" fill="var(--fill-0, #D29A45)" fill-opacity="0.08"/>
<path id="Vector_3" d="M708.295 428.682V583.362H716.823V641.415H719.45V583.362H727.971V428.682H719.45V370.629H716.823V428.682H708.295Z" fill="var(--fill-0, #D29A45)" fill-opacity="0.08"/>
<path id="Vector_4" d="M1573.99 180.337V286.693H1582.52V309.299H1585.14V286.693H1593.67V180.337H1585.14V157.738H1582.52V180.337H1573.99Z" fill="var(--fill-0, #D29A45)" fill-opacity="0.08"/>
<path id="Vector_5" d="M944.398 275.434V364.063H952.926V404.389H955.546V364.063H964.074V275.434H955.546V252.828H952.926V275.434H944.398Z" fill="var(--fill-0, #D29A45)" fill-opacity="0.08"/>
<path id="Vector_6" d="M236.096 167.188V255.818H244.624V296.144H247.251V255.818H255.772V167.188H247.251V144.59H244.624V167.188H236.096Z" fill="var(--fill-0, #D29A45)" fill-opacity="0.08"/>
<path id="Vector_7" d="M472.199 225.49V315.743H480.727V356.069H483.347V315.743H491.875V225.49H483.347V186.781H480.727V225.49H472.199Z" fill="var(--fill-0, #D29A45)" fill-opacity="0.08"/>
<path id="Vector_8" d="M1.52588e-05 374.629V464.875H8.52801V505.201H11.1484V464.875H19.6764V374.629H11.1484V350.406H8.52801V374.629H1.52588e-05Z" fill="var(--fill-0, #D29A45)" fill-opacity="0.08"/>
</g>
</svg>
