<svg preserveAspectRatio="none" width="100%" height="100%" overflow="visible" style="display: block;" viewBox="0 0 1908.47 461.217" fill="none" xmlns="http://www.w3.org/2000/svg">
<g id="Group" opacity="0.2">
<path id="Vector" d="M1652.7 22.5986V130.572H1661.22V169.281L1663.85 169.355V130.572H1672.37V22.5986H1663.85V0H1661.22V22.5986H1652.7Z" fill="var(--fill-0, #D29A45)" fill-opacity="0.08"/>
<path id="Vector_2" d="M944.398 329.685V418.314H952.926V458.64H955.546V418.314H964.074V329.685H955.546V307.086H952.926V329.685H944.398Z" fill="var(--fill-0, #D29A45)" fill-opacity="0.08"/>
<path id="Vector_3" d="M1180.5 265.487V355.74H1189.02V394.448H1191.65V355.74H1200.17V265.487H1191.65V207.434H1189.02V265.487H1180.5Z" fill="var(--fill-0, #D29A45)" fill-opacity="0.08"/>
<path id="Vector_4" d="M1416.6 252.783V341.419H1425.12V364.018H1427.74V341.419H1436.27V252.783H1427.74V212.457H1425.12V252.783H1416.6Z" fill="var(--fill-0, #D29A45)" fill-opacity="0.08"/>
<path id="Vector_5" d="M1888.8 82.7343V189.091H1897.32V229.417H1899.94V189.091H1908.47V82.7343H1899.94V60.1289H1897.32V82.7343H1888.8Z" fill="var(--fill-0, #D29A45)" fill-opacity="0.08"/>
<path id="Vector_6" d="M236.103 202.519V308.876H244.624V349.202H247.251V308.876H255.772V202.519H247.251V179.914H244.624V202.519H236.103Z" fill="var(--fill-0, #D29A45)" fill-opacity="0.08"/>
<path id="Vector_7" d="M472.199 252.858V356.586H480.727V396.912H483.347V356.586H491.875V252.858H483.347V194.805H480.727V252.858H472.199Z" fill="var(--fill-0, #D29A45)" fill-opacity="0.08"/>
<path id="Vector_8" d="M708.301 367.709V438.611H716.823V461.217H719.45V438.611H727.971V367.709H719.45V309.656H716.823V367.709H708.301Z" fill="var(--fill-0, #D29A45)" fill-opacity="0.08"/>
<path id="Vector_9" d="M0 306V412.356H8.52799V452.682H11.1484V412.356H19.6763V306H11.1484V283.394H8.52799V306H0Z" fill="var(--fill-0, #D29A45)" fill-opacity="0.08"/>
</g>
</svg>
