<svg preserveAspectRatio="none" width="100%" height="100%" overflow="visible" style="display: block;" viewBox="0 0 2020.84 255.363" fill="none" xmlns="http://www.w3.org/2000/svg">
<path id="Vector" d="M2020.84 6.58286C2010.27 16.3055 1972.04 48.5392 1929.89 48.5392C1911.67 48.5392 1900.77 38.0013 1889.22 26.8435C1875.56 13.6441 1861.44 0 1833.74 0C1808.32 0 1796.91 25.8665 1784.83 53.2557C1769.96 86.9785 1753.09 125.195 1706.76 125.195C1680.05 125.195 1661.05 117.11 1642.68 109.287C1625.19 101.842 1608.66 94.8078 1586.59 94.8078C1558.16 94.8078 1538.65 113.391 1517.99 133.072C1496.06 153.959 1473.38 175.554 1438.29 175.554C1406.54 175.554 1391.33 154.747 1376.62 134.635C1362.83 115.789 1349.82 97.9881 1324.47 97.9881C1305.03 97.9881 1290.19 104.719 1275.84 111.228C1263.07 117.016 1251.02 122.487 1236.94 122.487C1221.66 122.487 1210.23 116.221 1198.13 109.584C1185.71 102.772 1172.87 95.7242 1155.31 95.7242C1119.94 95.7242 1097.76 131.051 1074.28 168.445C1047.86 210.523 1020.54 254.029 971.652 254.029C940.969 254.029 925.792 220.077 911.114 187.244C896.14 153.75 880.66 119.111 848.596 119.111C827.882 119.111 813.81 127.554 798.917 136.488C781.504 146.932 761.766 158.77 727.547 158.77C699.814 158.77 679.673 143.239 660.192 128.214C642.402 114.496 625.595 101.532 604.463 101.532C557.061 101.532 532.164 134.669 508.082 166.714C484.459 198.152 460.033 230.662 414.308 230.662C376.761 230.662 355.043 193.503 332.046 154.161C308.436 113.775 284.024 72.007 240.623 72.007C207.831 72.007 188.66 83.0234 170.115 93.6759C151.443 104.402 132.137 115.5 98.6916 115.5C77.6546 115.5 67.2943 106.289 57.2777 97.3749C48.8642 89.8892 40.9155 82.8213 27.497 82.8213C12.792 82.8213 4.37177 88.9931 0 93.8847V95.9667C3.80594 91.1964 12.0308 84.1688 27.497 84.1688C40.4036 84.1688 48.1636 91.0683 56.375 98.3789C66.1088 107.037 77.1359 116.84 98.6849 116.84C132.494 116.84 151.955 105.656 170.782 94.8415C189.172 84.2766 208.181 73.3546 240.616 73.3546C283.242 73.3546 307.452 114.779 330.874 154.835C341.989 173.849 353.481 193.517 366.663 207.922C381.49 224.127 397.07 232.003 414.301 232.003C460.7 232.003 485.334 199.217 509.153 167.516C533.033 135.733 557.728 102.873 604.457 102.873C625.13 102.873 641.755 115.695 659.357 129.272C679.013 144.432 699.342 160.111 727.54 160.111C762.137 160.111 782.042 148.171 799.61 137.633C814.342 128.793 828.259 120.445 848.596 120.445C879.784 120.445 895.082 154.673 909.881 187.776C924.735 221.007 940.093 255.363 971.652 255.363C993.881 255.363 1013.75 246.362 1032.39 227.853C1048.81 211.534 1062.34 189.986 1075.42 169.146C1098.7 132.075 1120.69 97.0583 1155.31 97.0583C1172.52 97.0583 1185.21 104.018 1197.48 110.749C1209.74 117.474 1221.31 123.821 1236.94 123.821C1251.31 123.821 1263.5 118.296 1276.4 112.447C1290.62 105.999 1305.32 99.3289 1324.47 99.3289C1349.13 99.3289 1361.96 116.861 1375.53 135.423C1390.43 155.812 1405.85 176.895 1438.29 176.895C1473.92 176.895 1496.8 155.111 1518.92 134.042C1539.38 114.556 1558.7 96.1554 1586.58 96.1554C1608.38 96.1554 1624.78 103.136 1642.15 110.534C1660.65 118.41 1679.78 126.55 1706.76 126.55C1753.98 126.55 1771.03 87.9016 1786.07 53.8015C1798.48 25.6576 1809.2 1.35431 1833.74 1.35431C1860.89 1.35431 1874.81 14.8097 1888.28 27.8205C1900.02 39.1737 1911.12 49.8935 1929.88 49.8935C1956 49.8935 1980.39 37.624 1996.25 27.3286C2007.49 20.0315 2016.16 12.6671 2020.84 8.42227V6.58286H2020.84Z" fill="var(--fill-0, #D29A45)" fill-opacity="0.08"/>
</svg>
