<svg preserveAspectRatio="none" width="100%" height="100%" overflow="visible" style="display: block;" viewBox="0 0 16 16" fill="none" xmlns="http://www.w3.org/2000/svg">
<g id="lucide/thumbs-down" clip-path="url(#clip0_0_6)">
<path id="Vector" d="M11.333 9.33337V1.33337M5.99962 12.08L6.66629 9.33337H2.77962C2.57263 9.33337 2.36848 9.28518 2.18334 9.19261C1.9982 9.10004 1.83715 8.96564 1.71296 8.80004C1.58876 8.63445 1.50482 8.44221 1.4678 8.23855C1.43077 8.0349 1.44166 7.82542 1.49962 7.62671L3.05296 2.29337C3.13373 2.01642 3.30216 1.77314 3.53296 1.60004C3.76375 1.42694 4.04446 1.33337 4.33296 1.33337H13.333C13.6866 1.33337 14.0257 1.47385 14.2758 1.7239C14.5258 1.97395 14.6663 2.31309 14.6663 2.66671V8.00004C14.6663 8.35366 14.5258 8.6928 14.2758 8.94285C14.0257 9.1929 13.6866 9.33337 13.333 9.33337H11.493C11.2449 9.33351 11.0018 9.40283 10.791 9.53356C10.5802 9.66429 10.41 9.85123 10.2996 10.0734L7.99962 14.6667C7.68524 14.6628 7.3758 14.5879 7.09442 14.4476C6.81304 14.3074 6.567 14.1053 6.37469 13.8566C6.18237 13.6078 6.04874 13.3189 5.9838 13.0112C5.91885 12.7036 5.92426 12.3853 5.99962 12.08Z" stroke="var(--stroke-0, #FF667F)" stroke-width="1.33333" stroke-linecap="round" stroke-linejoin="round"/>
</g>
<defs>
<clipPath id="clip0_0_6">
<rect width="16" height="16" fill="white"/>
</clipPath>
</defs>
</svg>
