<svg preserveAspectRatio="none" width="100%" height="100%" overflow="visible" style="display: block;" viewBox="0 0 1672.38 434.099" fill="none" xmlns="http://www.w3.org/2000/svg">
<g id="Group" opacity="0.15">
<path id="Vector" d="M1416.6 40.3326V159.578H1425.12V204.742H1427.74V159.578H1436.27V40.3326H1427.74V0H1425.12V40.3326H1416.6Z" fill="var(--fill-0, #D29A45)" fill-opacity="0.08"/>
<path id="Vector_2" d="M1652.7 161.062V267.419H1661.23V290.018H1663.85V267.419H1672.38V161.062H1663.85V138.457H1661.23V161.062H1652.7Z" fill="var(--fill-0, #D29A45)" fill-opacity="0.08"/>
<path id="Vector_3" d="M944.397 310.283V398.912H952.925V421.518H955.546V398.912H964.074V310.283H955.546V269.957H952.925V310.283H944.397Z" fill="var(--fill-0, #D29A45)" fill-opacity="0.08"/>
<path id="Vector_4" d="M1180.5 174.228V262.857H1189.03V285.456H1191.65V262.857H1200.18V174.228H1191.65V133.902H1189.03V174.228H1180.5Z" fill="var(--fill-0, #D29A45)" fill-opacity="0.08"/>
<path id="Vector_5" d="M236.103 158.919V283.003H244.631V323.335H247.251V283.003H255.779V158.919H247.251V136.32H244.631V158.919H236.103Z" fill="var(--fill-0, #D29A45)" fill-opacity="0.08"/>
<path id="Vector_6" d="M472.199 135.67V261.37H480.727V283.969H483.347V261.37H491.875V135.67H483.347V96.961H480.727V135.67H472.199Z" fill="var(--fill-0, #D29A45)" fill-opacity="0.08"/>
<path id="Vector_7" d="M0 227.017V315.647H8.52799V338.245H11.1484V315.647H19.6763V227.017H11.1484V186.691H8.52799V227.017H0Z" fill="var(--fill-0, #D29A45)" fill-opacity="0.08"/>
<path id="Vector_8" d="M708.302 251.963V376.046H716.83V434.099H719.45V376.046H727.978V251.963H719.45V211.637H716.83V251.963H708.302Z" fill="var(--fill-0, #D29A45)" fill-opacity="0.08"/>
</g>
</svg>
