<svg preserveAspectRatio="none" width="100%" height="100%" overflow="visible" style="display: block;" viewBox="0 0 1993.91 345.205" fill="none" xmlns="http://www.w3.org/2000/svg">
<path id="Vector" d="M1239.19 188.565V166.31H1240.53V188.565H1244.92V222.267H1240.53V239.132H1239.19V222.267H1234.8V188.565H1239.19ZM1336.01 95.01V144.89H1340.4V163.776H1341.74V144.89H1346.13V95.01H1341.74V78.1452H1340.4V95.01H1336.01ZM1356.25 63.2951V101.721H1360.64V126.004H1361.99V101.721H1366.37V63.2951H1361.99V46.4303H1360.64V63.2951H1356.25ZM1315.77 139.493V181.955H1320.15V193.429H1321.5V181.955H1325.89V139.493H1321.5V130.04H1320.15V139.493H1315.77ZM1255.04 221.459V258.53H1259.43V267.983H1260.78V258.53H1265.16V221.459H1260.78V204.594H1259.43V221.459H1255.04ZM1275.29 190.613V220.947H1279.67V237.811H1281.02V220.947H1285.4V190.613H1281.02V174.422H1279.67V190.613H1275.29ZM991.888 225.73V290.427H996.273V314.71H997.62V290.427H1002.01V225.73H997.62V201.447H996.273V225.73H991.888ZM1477.71 104.726V164.039H1482.1V180.904H1483.45V164.039H1487.83V104.726H1483.45V95.2727H1482.1V104.726H1477.71ZM1437.23 121.86V166.343H1441.61V175.796H1442.96V166.343H1447.35V121.86H1442.96V112.407H1441.61V121.86H1437.23ZM1416.99 79.4793V124.643H1421.37V140.834L1422.72 140.868V124.643H1427.1V79.4793H1422.72V70.0261H1421.37V79.4793H1416.99ZM1376.5 93.6287V124.643H1380.89V140.834H1382.24V124.643H1386.62V93.6287H1382.24V77.4377H1380.89V93.6287H1376.5ZM1396.74 103.877V134.211H1401.13V144.338H1402.48V134.211H1406.86V103.877H1402.48V73.5365H1401.13V103.877H1396.74ZM1457.47 145.51V189.993H1461.86V199.446H1463.2V189.993H1467.59V145.51H1463.2V136.057H1461.86V145.51H1457.47ZM1093.11 207.929V245.001H1097.49V254.454H1098.84V245.001H1103.22V207.929H1098.84V191.064H1097.49V207.929H1093.11ZM1052.62 207.929V245.001H1057.01V261.865H1058.35V245.001H1062.74V207.929H1058.35V198.476H1057.01V207.929H1052.62ZM1072.86 185.688V222.759H1077.25V239.624H1078.6V222.759H1082.98V185.688H1078.6V168.823H1077.25V185.688H1072.86ZM1012.14 257.324V301.807H1016.52V318.672H1017.87V301.807H1022.25V257.324H1017.87V247.871H1016.52V257.324H1012.14ZM1032.38 242.494V279.566H1036.76V296.43H1038.11V279.566H1042.5V242.494H1038.11V233.041H1036.76V242.494H1032.38ZM1214.57 151.021V188.093H1218.95V197.546H1220.3V188.093H1224.68V151.021H1220.3V134.157H1218.95V151.021H1214.57ZM1174.08 181.079V218.824H1178.47V235.015H1179.81V218.824H1184.2V181.079H1179.81V156.796H1178.47V181.079H1174.08ZM1194.32 188.605V235.783H1198.71V260.066H1200.06V235.783H1204.44V188.605H1200.06V179.152H1198.71V188.605H1194.32ZM1133.6 155.63V200.113H1137.98V209.566H1139.33V200.113H1143.71V155.63H1139.33V146.177H1137.98V155.63H1133.6ZM1153.84 146.81V183.882H1158.22V193.335H1159.57V183.882H1163.96V146.81H1159.57V129.946H1158.22V146.81H1153.84ZM1113.35 161.64V198.712H1117.74V215.576H1119.09V198.712H1123.47V161.64H1119.09V152.187H1117.74V161.64H1113.35ZM1295.54 175.763V212.834H1299.93V222.287H1301.27V212.834H1305.66V175.763H1301.27V158.898H1299.93V175.763H1295.54ZM1497.97 116.355V183.087H1502.35V207.37H1503.7V183.087H1508.09V116.355H1503.7V99.4906H1502.35V116.355H1497.97ZM1821.85 80.5169V124.326H1826.24V133.779H1827.58V124.326H1831.97V80.5169H1827.58V50.1765H1826.24V80.5169H1821.85ZM1862.34 79.4658V115.055H1866.72V124.508H1868.07V115.055H1872.45V79.4658H1868.07V68.5303H1866.72V79.4658H1862.34ZM1842.09 20.2471V85.6242H1846.48V115.291H1847.83V85.6242H1852.21V20.2471H1847.83V10.794H1846.48V20.2471H1842.09ZM1781.37 82.6865V125.155H1785.75V137.303H1787.1V125.155H1791.48V82.6865H1787.1V66.4955H1785.75V82.6865H1781.37ZM1740.88 98.1431V129.15H1745.27V145.341H1746.61V129.15H1751V98.1431H1746.61V81.9521H1745.27V98.1431H1740.88ZM1761.12 124.293V162.038H1765.51V171.491H1766.86V162.038H1771.24V124.293H1766.86V108.102H1765.51V124.293H1761.12ZM1963.55 39.1063V83.5894H1967.94V93.0425H1969.29V83.5894H1973.67V39.1063H1969.29V29.6531H1967.94V39.1063H1963.55ZM1983.8 31.6947V68.7662H1988.18V78.2193H1989.53V68.7662H1993.91V31.6947H1989.53V22.2415H1988.18V31.6947H1983.8ZM1902.83 11.6766V53.9362H1907.21V70.801H1908.56V53.9362H1912.94V11.6766H1908.56V0H1907.21V11.6766H1902.83ZM1923.07 40.912V92.8134H1927.45V102.267H1928.8V92.8134H1933.19V40.912H1928.8V31.4589H1927.45V40.912H1923.07ZM1882.58 24.2831V76.1845H1886.97V87.8611H1888.32V76.1845H1892.7V24.2831H1888.32V14.8299H1886.97V24.2831H1882.58ZM1801.62 98.0218V135.767H1806V145.22H1807.35V135.767H1811.73V98.0218H1807.35V81.8308H1806V98.0218H1801.62ZM1578.94 146.312V190.795H1583.33V207.66H1584.68V190.795H1589.06V146.312H1584.68V136.859H1583.33V146.312H1578.94ZM1558.7 117.433V147.767H1563.09V184.845H1564.44V147.767H1568.82V117.433H1564.44V107.306H1563.09V117.433H1558.7ZM1599.19 151.123V188.194H1603.57V205.059H1604.92V188.194H1609.3V151.123H1604.92V134.258H1603.57V151.123H1599.19ZM1538.46 104.632V149.115H1542.85V165.979H1544.19V149.115H1548.58V104.632H1544.19V95.1784H1542.85V104.632H1538.46ZM1518.22 74.9717V126.873H1522.6V143.738H1523.95V126.873H1528.34V74.9717H1523.95V50.6886H1522.6V74.9717H1518.22ZM1659.92 151.116V195.599H1664.31V205.052H1665.65V195.599H1670.04V151.116H1665.65V134.251H1664.31V151.116H1659.92ZM1680.16 143.704V173.364H1684.55V182.817H1685.89V173.364H1690.28V143.704H1685.89V119.421H1684.55V143.704H1680.16ZM1700.4 100.831V145.995H1704.79V168.924H1706.14V145.995H1710.52V100.831H1706.14V84.6405H1704.79V100.831H1700.4ZM1639.68 143.704V173.364H1644.06V197.647H1645.41V173.364H1649.8V143.704H1645.41V126.839H1644.06V143.704H1639.68ZM1720.65 87.8948V118.902H1725.03V135.093H1726.38V118.902H1730.76V87.8948H1726.38V71.7038H1725.03V87.8948H1720.65ZM1619.44 108.735V153.218H1623.82V162.671H1625.17V153.218H1629.55V108.735H1625.17V91.8701H1623.82V108.735H1619.44ZM1943.32 77.9768V129.878H1947.7V139.331H1949.05V129.878H1953.44V77.9768H1949.05V68.5236H1947.7V77.9768H1943.32ZM303.633 223.177V254.184H308.018V271.049H309.365V254.184H313.751V223.177H309.365V200.248H308.018V223.177H303.633ZM283.391 206.999V244.071H287.776V260.935H289.123V244.071H293.508V206.999H289.123V197.546H287.776V206.999H283.391ZM465.577 245.182V289.666H469.962V299.119H471.31V289.666H475.695V245.182H471.31V235.729H469.962V245.182H465.577ZM263.148 240.035V279.134H267.534V308.801H268.881V279.134H273.266V240.035H268.881V208.34H267.534V240.035H263.148ZM344.117 225.885V287.233H348.503V311.516H349.85V287.233H354.235V225.885H349.85V196.219H348.503V225.885H344.117ZM242.906 217.119V261.602H247.292V271.056H248.639V261.602H253.024V217.119H248.639V200.255H247.292V217.119H242.906ZM222.664 245.425V284.518H227.049V300.035H228.397V284.518H232.782V245.425H228.397V228.56H227.049V245.425H222.664ZM445.335 208.818V253.301H449.72V270.166H451.067V253.301H455.453V208.818H451.067V158.938H449.72V208.818H445.335ZM425.093 146.676V212.053H429.478V255.195H430.825V212.053H435.21V146.676H430.825V129.811H429.478V146.676H425.093ZM384.608 213.407V257.89H388.994V274.755H390.341V257.89H394.726V213.407H390.341V189.124H388.994V213.407H384.608ZM364.366 169.227V228.54H368.751V237.993H370.099V228.54H374.484V169.227H370.099V159.774H368.751V169.227H364.366ZM404.851 178.512V222.321H409.236V239.186H410.583V222.321H414.968V178.512H410.583V169.059H409.236V178.512H404.851ZM323.882 171.963V246.786H328.267V263.651H329.614V246.786H334V171.963H329.614V140.942H328.267V171.963H323.882ZM40.4844 150.395V194.878H44.8696V226.573H46.2169V194.878H50.6021V150.395H46.2169V118.7H44.8696V150.395H40.4844ZM60.7266 194.878V254.191H65.1118V263.644H66.4591V254.191H70.8443V194.878H66.4591V170.595H65.1118V194.878H60.7266ZM80.9688 231.949V261.609H85.354V278.474H86.7012V261.609H91.0865V231.949H86.7012V215.085H85.354V231.949H80.9688ZM20.2422 165.218V254.191H24.6274V263.644H25.9747V254.191H30.3599V165.218H25.9747V133.523H24.6274V165.218H20.2422ZM0 98.4867V172.63H4.38525V204.324H5.73248V172.63H10.1177V98.4867H5.73248V89.0335H4.38525V98.4867H0ZM182.186 260.929V296.653H186.572V308.127H187.919V296.653H192.304V260.929H187.919V244.738H186.572V260.929H182.186ZM161.944 217.119V261.602H166.329V271.056H167.677V261.602H172.062V217.119H167.677V207.666H166.329V217.119H161.944ZM202.429 283.851V329.014H206.814V345.205H208.161V329.014H212.546V283.851H208.161V259.568H206.814V283.851H202.429ZM121.46 202.29V246.773H125.845V256.226H127.192V246.773H131.578V202.29H127.192V192.836H125.845V202.29H121.46ZM141.702 194.878V239.361H146.087V248.814H147.435V239.361H151.82V194.878H147.435V185.425H146.087V194.878H141.702ZM101.218 231.949V276.432H105.603V285.886H106.95V276.432H111.335V231.949H106.95V222.496H105.603V231.949H101.218ZM688.255 154.741V199.224H692.64V216.089H693.987V199.224H698.372V154.741H693.987V145.288H692.64V154.741H688.255ZM809.708 175.796V219.181H814.093V236.046H815.44V219.181H819.826V175.796H815.44V151.513H814.093V175.796H809.708ZM829.95 145.685V185.465H834.335V202.33H835.682V185.465H840.068V145.685H835.682V129.494H834.335V145.685H829.95ZM789.466 143.01V193.813H793.851V203.266H795.198V193.813H799.583V143.01H795.198V111.315H793.851V143.01H789.466ZM728.739 144.614V196.515H733.124V213.38H734.472V196.515H738.857V144.614H734.472V135.161H733.124V144.614H728.739ZM769.224 123.774V160.845H773.609V177.71H774.956V160.845H779.341V123.774H774.956V114.321H773.609V123.774H769.224ZM748.981 116.362V153.434H753.367V170.298H754.714V153.434H759.099V116.362H754.714V106.909H753.367V116.362H748.981ZM850.192 134.891V187.466H854.577V196.919H855.925V187.466H860.31V134.891H855.925V118.7H854.577V134.891H850.192ZM931.161 223.837V253.497H935.546V262.95H936.893V253.497H941.279V223.837H936.893V199.554H935.546V223.837H931.161ZM951.403 203.624V240.695H955.788V257.56H957.136V240.695H961.521V203.624H957.136V194.17H955.788V203.624H951.403ZM870.434 140.753V178.498H874.82V195.363H876.167V178.498H880.552V140.753H876.167V124.562H874.82V140.753H870.434ZM910.919 179.65V224.133H915.304V233.587H916.651V224.133H921.037V179.65H916.651V170.197H915.304V179.65H910.919ZM890.677 156.904V202.741H895.062V226.344H896.409V202.741H900.794V156.904H896.409V140.713H895.062V156.904H890.677ZM647.764 154.06V212.699H652.149V222.153H653.496V212.699H657.881V154.06H653.496V144.607H652.149V154.06H647.764ZM587.037 207.316V251.125H591.422V267.316H592.77V251.125H597.155V207.316H592.77V197.189H591.422V207.316H587.037ZM566.795 198.024V242.508H571.18V259.372H572.527V242.508H576.913V198.024H572.527V188.571H571.18V198.024H566.795ZM546.553 249.926V286.997H550.938V296.451H552.285V286.997H556.67V249.926H552.285V233.061H550.938V249.926H546.553ZM526.31 253.133V290.205H530.696V307.069H532.043V290.205H536.428V253.133H532.043V243.68H530.696V253.133H526.31ZM506.068 235.103V279.586H510.454V289.039H511.801V279.586H516.186V235.103H511.801V225.65H510.454V235.103H506.068ZM627.521 203.138V240.884H631.907V257.748H633.254V240.884H637.639V203.138H633.254V193.012H631.907V203.138H627.521ZM607.279 173.108V210.179H611.664V219.633H613.012V210.179H617.397V173.108H613.012V156.243H611.664V173.108H607.279ZM971.645 183.538V235.44H976.031V259.723H977.378V235.44H981.763V183.538H977.378V166.673H976.031V183.538H971.645ZM668.006 125.815V177.717H672.391V187.17H673.738V177.717H678.124V125.815H673.738V108.95H672.391V125.815H668.006ZM485.819 260.551V297.623H490.205V314.488H491.552V297.623H495.937V260.551H491.552V251.098H490.205V260.551H485.819ZM708.49 116.376V168.277H712.875V177.73H714.223V168.277H718.608V116.376H714.223V114.334H712.875V116.376H708.49Z" fill="var(--fill-0, #E79017)"/>
</svg>
