<svg preserveAspectRatio="none" width="100%" height="100%" overflow="visible" style="display: block;" viewBox="0 0 2020.85 333.946" fill="none" xmlns="http://www.w3.org/2000/svg">
<path id="Vector" d="M2020.85 0C1921.82 87.403 1814.81 141.11 1702.74 159.639C1627.51 172.077 1580.64 164.073 1531.01 155.596C1480.12 146.905 1427.5 137.923 1341.62 153.016C1255.66 168.122 1205.15 195.222 1160.6 219.141C1109.38 246.631 1065.14 270.362 982.275 268.994C923.59 268.01 891.054 255.168 859.589 242.737C825.955 229.456 794.188 216.904 733.758 219.282C650.835 222.543 600.314 250.869 551.45 278.258C515.384 298.472 481.326 317.567 435.473 327C311.386 352.502 164.881 289.335 0 139.257V141.097C92.4943 225.144 179.889 282.395 259.814 311.301C293.556 323.503 326.576 330.854 357.96 333.151C365.208 333.684 372.423 333.946 379.597 333.946C398.714 333.946 417.521 332.067 435.743 328.32C481.798 318.854 515.95 299.705 552.11 279.437C600.833 252.122 651.219 223.877 733.811 220.637C793.959 218.278 825.598 230.77 859.091 243.997C890.663 256.468 923.32 269.358 982.248 270.348C984.572 270.389 986.856 270.409 989.119 270.409C1067.93 270.409 1111.28 247.15 1161.23 220.34C1205.69 196.475 1256.09 169.422 1341.84 154.357C1427.5 139.304 1480 148.272 1530.77 156.944C1580.51 165.44 1627.5 173.465 1702.96 160.987C1766.8 150.435 1829.54 128.335 1889.42 95.2997C1934.26 70.5652 1978.45 39.1332 2020.84 1.82594V0.0202126L2020.85 0Z" fill="var(--fill-0, #D29A45)" fill-opacity="0.08"/>
</svg>
